<?xml version="1.0" encoding="UTF-8"?><svg id="Layer_2" xmlns="http://www.w3.org/2000/svg" width="350" height="68" viewBox="0 0 732.39 143.67"><defs><style>.cls-1{fill:#05c54c;stroke-width:0px;}.cls-2{fill:#333;font-family:CenturyGothic-Bold, 'Century Gothic';font-size:101.15px;font-weight:700;}.cls-3{fill:#059ec5;stroke:#059ec5;stroke-miterlimit:10;stroke-width:1.75px;}</style></defs><g id="PlanetHubs_All_Logos"><g id="PlanetHubs_Logo"><text class="cls-2" transform="translate(186.15 100.21)"><tspan x="0" y="0">planethubs</tspan></text><g id="PlanetHubs_Icon"><polygon id="Green_Mountains" class="cls-1" points="114.09 71.08 159.39 143.67 0 143.67 6 135.34 142.65 135.34 114 88.33 85.53 127.6 11.61 127.6 67.68 48.47 92.2 89.73 86.4 97.75 67.68 65.73 29.94 118.68 79.85 118.68 114.09 71.08"/><path id="Blue_Sun" class="cls-3" d="m32.69,82.57c-7.19-4.99-8.25-6.28-13.08-12.79s-7.11-15.5-7.19-23.95C12.18,20.6,32.47.81,57.24.88c24.35.06,44.01,20.59,44.01,44.94,0,9.25-3.85,19.26-9.22,26.78l-4.24-6.59c4.47-6.26,6.1-12.49,6.1-20.19,0-20.29-16.36-37.57-36.65-37.57S19.78,25.54,19.78,45.83c0,14.02,5.1,24,17.06,30.82l-4.15,5.92Z"/></g></g></g></svg>