<?xml version="1.0" encoding="UTF-8"?><svg id="Layer_2" xmlns="http://www.w3.org/2000/svg" width="350" height="68" viewBox="0 0 728.58 143.67"><defs><style>.cls-1{fill:#05c54c;}.cls-1,.cls-2{stroke-width:0px;}.cls-2{fill:#333;}.cls-3{fill:#059ec5;stroke:#059ec5;stroke-miterlimit:10;stroke-width:1.75px;}</style></defs><g id="PlanetHubs_All_Logos"><g id="PlanetHubs_Logo"><path class="cls-2" d="m206.35,46.47v5.93c2.44-2.44,5.07-4.26,7.9-5.48,2.83-1.22,5.86-1.83,9.09-1.83,7.01,0,12.97,2.65,17.88,7.95,4.91,5.3,7.36,12.1,7.36,20.4s-2.54,14.69-7.61,20.08c-5.07,5.38-11.08,8.08-18.03,8.08-3.1,0-5.98-.55-8.64-1.65-2.67-1.1-5.32-2.91-7.95-5.41v25.34h-13.38V46.47h13.38Zm14.18,11.06c-4.25,0-7.77,1.45-10.57,4.35-2.8,2.9-4.2,6.68-4.2,11.36s1.4,8.64,4.2,11.58c2.8,2.95,6.32,4.42,10.57,4.42s7.58-1.5,10.4-4.49c2.82-3,4.22-6.82,4.22-11.46s-1.38-8.39-4.15-11.33c-2.77-2.95-6.26-4.42-10.47-4.42Z"/><path class="cls-2" d="m258.26,25.73h13.48v74.48h-13.48V25.73Z"/><path class="cls-2" d="m323.65,46.47h13.48v53.73h-13.48v-5.68c-2.63,2.5-5.27,4.31-7.92,5.41-2.65,1.1-5.52,1.65-8.61,1.65-6.94,0-12.94-2.69-18.01-8.08-5.07-5.38-7.6-12.08-7.6-20.08s2.45-15.1,7.35-20.4c4.9-5.3,10.85-7.95,17.86-7.95,3.22,0,6.25.61,9.08,1.83,2.83,1.22,5.44,3.05,7.84,5.48v-5.93Zm-14.17,11.06c-4.17,0-7.63,1.47-10.39,4.42-2.76,2.95-4.13,6.73-4.13,11.33s1.4,8.46,4.21,11.46c2.81,3,6.26,4.49,10.36,4.49s7.74-1.47,10.53-4.42c2.79-2.95,4.18-6.81,4.18-11.58s-1.39-8.46-4.18-11.36c-2.79-2.9-6.32-4.35-10.58-4.35Z"/><path class="cls-2" d="m350.76,46.47h13.48v5.51c3.06-2.58,5.83-4.37,8.31-5.38s5.02-1.51,7.62-1.51c5.33,0,9.85,1.86,13.56,5.58,3.12,3.16,4.68,7.84,4.68,14.03v35.51h-13.33v-23.53c0-6.41-.29-10.67-.86-12.78-.57-2.1-1.58-3.71-3.01-4.81s-3.19-1.65-5.3-1.65c-2.73,0-5.07.91-7.02,2.74-1.96,1.83-3.31,4.35-4.07,7.57-.39,1.68-.59,5.31-.59,10.9v21.56h-13.48v-53.73Z"/><path class="cls-2" d="m465.29,77.24h-43.31c.62,3.82,2.3,6.86,5.01,9.11,2.72,2.26,6.18,3.38,10.4,3.38,5.04,0,9.37-1.76,12.99-5.28l11.36,5.33c-2.83,4.02-6.22,6.99-10.17,8.91s-8.64,2.89-14.08,2.89c-8.43,0-15.29-2.66-20.59-7.98-5.3-5.32-7.95-11.98-7.95-19.98s2.64-15.01,7.93-20.42c5.29-5.42,11.91-8.12,19.88-8.12,8.46,0,15.34,2.71,20.64,8.12,5.3,5.42,7.95,12.57,7.95,21.46l-.05,2.57Zm-13.48-10.62c-.89-3-2.65-5.43-5.27-7.31-2.62-1.88-5.66-2.82-9.13-2.82-3.76,0-7.06,1.05-9.89,3.16-1.78,1.32-3.43,3.64-4.95,6.96h29.24Z"/><path class="cls-2" d="m477.84,26.67h13.48v19.8h8v11.61h-8v42.13h-13.48v-42.13h-6.91v-11.61h6.91v-19.8Z"/><path class="cls-2" d="m506.58,25.73h13.38v26.18c2.63-2.27,5.28-3.98,7.95-5.11,2.67-1.14,5.37-1.7,8.1-1.7,5.33,0,9.83,1.84,13.48,5.53,3.13,3.19,4.69,7.89,4.69,14.08v35.51h-13.29v-23.56c0-6.22-.3-10.44-.89-12.64-.59-2.21-1.61-3.85-3.04-4.94-1.43-1.09-3.2-1.63-5.31-1.63-2.73,0-5.08.91-7.04,2.72-1.96,1.81-3.32,4.28-4.07,7.41-.4,1.61-.59,5.3-.59,11.06v21.58h-13.38V25.73Z"/><path class="cls-2" d="m567.18,46.47h13.63v25.88c0,5.04.35,8.54,1.04,10.5.69,1.96,1.81,3.48,3.34,4.57,1.53,1.09,3.42,1.63,5.67,1.63s4.15-.54,5.72-1.61c1.57-1.07,2.73-2.64,3.49-4.72.56-1.55.84-4.86.84-9.93v-26.32h13.48v22.77c0,9.38-.74,15.8-2.22,19.26-1.81,4.21-4.48,7.45-8,9.71-3.52,2.25-8,3.38-13.43,3.38-5.89,0-10.66-1.32-14.3-3.95s-6.2-6.3-7.68-11.01c-1.05-3.26-1.58-9.19-1.58-17.78v-22.37Z"/><path class="cls-2" d="m641.31,25.73v26.67c2.44-2.44,5.07-4.26,7.9-5.48,2.83-1.22,5.86-1.83,9.09-1.83,7.01,0,12.97,2.65,17.88,7.95,4.91,5.3,7.36,12.1,7.36,20.4s-2.54,14.69-7.61,20.08c-5.07,5.38-11.08,8.08-18.03,8.08-3.1,0-5.98-.55-8.64-1.65-2.67-1.1-5.32-2.91-7.95-5.41v5.68h-13.38V25.73h13.38Zm14.17,31.81c-4.25,0-7.77,1.45-10.57,4.35-2.8,2.9-4.2,6.68-4.2,11.36s1.4,8.64,4.2,11.58c2.8,2.95,6.32,4.42,10.57,4.42s7.58-1.5,10.4-4.49c2.82-3,4.22-6.82,4.22-11.46s-1.38-8.39-4.15-11.33c-2.77-2.95-6.26-4.42-10.47-4.42Z"/><path class="cls-2" d="m727.6,53.98l-8.35,8.35c-3.39-3.36-6.47-5.04-9.24-5.04-1.51,0-2.7.32-3.56.96-.86.64-1.28,1.44-1.28,2.4,0,.72.27,1.39.81,2,.54.61,1.88,1.44,4.03,2.49l4.94,2.47c5.2,2.57,8.77,5.19,10.72,7.85,1.94,2.67,2.91,5.8,2.91,9.38,0,4.77-1.75,8.76-5.26,11.95-3.51,3.19-8.21,4.79-14.1,4.79-7.84,0-14.09-3.06-18.77-9.19l8.3-9.04c1.58,1.84,3.43,3.33,5.56,4.47,2.12,1.14,4.01,1.7,5.66,1.7,1.78,0,3.21-.43,4.3-1.28,1.09-.86,1.63-1.84,1.63-2.96,0-2.07-1.96-4.1-5.88-6.07l-4.54-2.27c-8.69-4.38-13.04-9.86-13.04-16.45,0-4.25,1.64-7.88,4.91-10.89,3.28-3.01,7.46-4.52,12.57-4.52,3.49,0,6.77.77,9.85,2.3,3.08,1.53,5.69,3.73,7.83,6.59Z"/><g id="PlanetHubs_Icon"><polygon id="Green_Mountains" class="cls-1" points="114.09 71.08 159.39 143.67 0 143.67 6 135.34 142.65 135.34 114 88.33 85.53 127.6 11.61 127.6 67.68 48.47 92.2 89.73 86.4 97.75 67.68 65.73 29.94 118.68 79.85 118.68 114.09 71.08"/><path id="Blue_Sun" class="cls-3" d="m32.69,82.57c-7.19-4.99-8.25-6.28-13.08-12.79-5.02-6.76-7.11-15.5-7.19-23.95C12.18,20.6,32.47.81,57.24.88c24.35.06,44.01,20.59,44.01,44.94,0,9.25-3.85,19.26-9.22,26.78l-4.24-6.59c4.47-6.26,6.1-12.49,6.1-20.19,0-20.29-16.36-37.57-36.65-37.57S19.78,25.54,19.78,45.83c0,14.02,5.1,24,17.06,30.82l-4.15,5.92Z"/></g></g></g></svg>